<svg xmlns="http://www.w3.org/2000/svg" viewBox="0 0 32 32"><path d="M18.3 19.8H18a1.3 1.3 0 01-.7.3.1.1 0 000-.2c-.1-.3-.5-.2-.6 0a.4.4 0 00-.1 0l-.5.4a1 1 0 01-.7 0 1 1 0 00-.3 0 .1.1 0 00-.2-.1c-.3 0-.5-.4-.8-.3-.2 0-.2.3 0 .2s.3.1.4.2a.2.2 0 000 .2 1.3 1.3 0 01-.7-.1 1 1 0 01-.5-.7.8.8 0 010-.5.1.1 0 000-.1v-.3a3.7 3.7 0 01.4-.8h-.2a3.8 3.8 0 00-.5 1.5 1.4 1.4 0 00.1.7.9.9 0 00.5.5 1.8 1.8 0 00.8 0 1.7 1.7 0 00.4 0v-.1h.2a1.8 1.8 0 01.5 0 1.3 1.3 0 00.9-.2h.1a2.6 2.6 0 01.9-.2 1.4 1.4 0 00.7-.2.1.1 0 000-.2zM9.8 25.6l.8 1.8a1.6 1.6 0 00.5.7l1.7 1.3a7 7 0 001.8.9 4.8 4.8 0 001.1.3 4.3 4.3 0 001.3-.1 12.9 12.9 0 002-.5 10.4 10.4 0 001.9-1c.8-.6 1-1.5 1.6-2.2a9.7 9.7 0 00.9-1.3l.8-1a1.9 1.9 0 00.1-1l-.6 1-.5.7-1 1.2-1.4 2-1.3.9-1.2.5-1.6.3h-1.5L12 28.4l-.6-.7zM12.6 16a1.2 1.2 0 01-.4.3l-.4.2a4.2 4.2 0 01-1.2 0c-.2 0-.2.3 0 .3a4 4 0 001.3-.1 1.5 1.5 0 00.9-.6c0-.1-.1-.2-.2-.1zM20.7 14.8a3.5 3.5 0 01-1.9.4c-.1 0-.1.2 0 .2a3.7 3.7 0 002-.5s0-.2-.1-.1zM21.2 14.3H21h-.3v-.1a.5.5 0 00-.4 0h-.4a.1.1 0 000 .2 8.2 8.2 0 01-1.4.3 6 6 0 00.8 0 5.4 5.4 0 00.7-.2 12 12 0 011.3-.2zM13 15.3a.8.8 0 01-.4.2l-.5.1a6.5 6.5 0 01-1 .1 5.4 5.4 0 00-.7 0 1 1 0 00-.5.2V16.2a.7.7 0 01.5-.2l.7-.1a6.9 6.9 0 001-.1l.6-.1a.9.9 0 00.4-.2l-.2-.2zM19.5 23.1h-2.2a1.5 1.5 0 00-.3.1h-.2l-1.1.3h-.3a.4.4 0 00-.1-.1 1.3 1.3 0 00-1 0v.1a1.8 1.8 0 00-.4.2 1.8 1.8 0 00-.3.1v.2a3.7 3.7 0 011-.3h1.2a2.2 2.2 0 00.5 0l.6-.2a3.7 3.7 0 011-.1 6.7 6.7 0 001.3-.1h.2v-.1z"/><path d="M18.7 23.6a8.1 8.1 0 01-1.4.5 4.3 4.3 0 01-2.9.2 3 3 0 01-.7-.3s-.1 0 0 .1c1.6 1 3.6.2 5.2-.6h-.2zM22.8 11.8a9.9 9.9 0 00-1.3-2.7l-1-1.2a5.3 5.3 0 00-1-1 5.2 5.2 0 00-2.9-.5H15a6.8 6.8 0 00-1.6.2 5.8 5.8 0 00-1.5.7l-1.6 1a.2.2 0 000 .3.6.6 0 01-.2 0 3.4 3.4 0 00-.4.3 2.8 2.8 0 00-.5.5 3 3 0 00-.5.5 2.6 2.6 0 00-.3.6 2.7 2.7 0 00-.3.8h.2A2.4 2.4 0 019 10a6 6 0 011-.8 3.7 3.7 0 00.5-.5.2.2 0 00.1 0l1.3-.9a9.8 9.8 0 011.2-.7 4.1 4.1 0 011.5-.3h3.1A4 4 0 0119 7a3.3 3.3 0 011 .8l1 1.2a9.5 9.5 0 011.4 2.8c.1.2.5.1.4 0zM25 20a2.7 2.7 0 010-.7 4.3 4.3 0 00-.1-.5l-.3-1.2a4.7 4.7 0 01-.1-.5l-.1-.6a4.5 4.5 0 00-.2-.6 7 7 0 01-.3-1.2 1 1 0 00-.2-.7h-.1l-.2-.5a.1.1 0 00-.2-.1v.1l.5 1.3a13.6 13.6 0 01.3 1l.2.6a3.6 3.6 0 010 .6 4.5 4.5 0 00.2.5l.3 1.2a4.3 4.3 0 010 .6 3 3 0 00.2.7h.2z"/><path d="M16.8 11.8l.1-.1.1-.1.1-.1c.1-.1 0 0 0 0l.1-.2c.1 0 0 0 0 0H17 17v.1l-.1.1c0 .1 0 0 0 0l-.1.2a1.6 1.6 0 00-.2.4 1.7 1.7 0 010-.2 1.3 1.3 0 01.1-.2l.1-.1c.1 0 0-.2 0-.2a1.4 1.4 0 01.2-.2.4.4 0 00-.2.1.7.7 0 00-.1.2 1.1 1.1 0 00-.2.3 2 2 0 000 .4v0a1.4 1.4 0 000 .3 1.9 1.9 0 01.2-.4 2 2 0 01.1-.3z"/><path d="M16.9 11.9l-.2.2a.9.9 0 000 .1.3.3 0 000 .1.7.7 0 010-.2h.2a.9.9 0 00-.1 0v.1h.2a.5.5 0 01.2-.2l.2-.2h.1l.3-.2a2.5 2.5 0 00-.3.3 1.9 1.9 0 00-.2.4 1.2 1.2 0 01.2-.2 1.4 1.4 0 01.1-.2h.1a.5.5 0 00.1-.1 1.3 1.3 0 00.2-.2 2 2 0 00.2-.2h.1l-.2.1-.1.2a1 1 0 00-.3.3 1 1 0 01.3-.2 3 3 0 01.3-.2h.3-.2v.1h-.1a4.1 4.1 0 00-.4.4l.2-.1.1-.1h.1l.3-.2h.2l.3-.2.2-.1c0-.1.1 0 .2 0l-.3.1-.3.3.3-.2.4-.2-.2.2.2-.1-.3.2a3.6 3.6 0 00-.5.3 4 4 0 01.5-.3h.4a3.9 3.9 0 01.6-.2l-.3.2a3.3 3.3 0 00.6-.2h.1a2.3 2.3 0 00-.3 0 2.2 2.2 0 00-.3.2 2.5 2.5 0 01.3 0 1 1 0 00.2-.1h.5l.3-.1a.7.7 0 00-.1 0 .3.3 0 00-.2-.2.6.6 0 01.2 0h.2l-.2-.1a1 1 0 00-.4 0h-.6a.5.5 0 00-.1 0 1 1 0 00.1-.1 1 1 0 00-.1 0H20a.6.6 0 01.1-.1.4.4 0 01.1 0 1 1 0 00-.2-.1 1.9 1.9 0 00-.3 0 3.7 3.7 0 00-.5 0 3.6 3.6 0 00-.5 0 1.2 1.2 0 00-.2.1 1.7 1.7 0 00-.3.1 1.3 1.3 0 00-.2.2l.1-.2a2.8 2.8 0 00-.3.2l-.2.1-.1.1a3.3 3.3 0 00-.3.3 1.3 1.3 0 00-.2.2.5.5 0 000 .2.9.9 0 010-.2 1.3 1.3 0 01.1-.3h.1a2.2 2.2 0 01.2-.2l.1-.1h.1l.2-.2.1-.2a1.2 1.2 0 00-.2 0 1.6 1.6 0 00-.2.2 1.2 1.2 0 00-.2.1l-.1.2a2.8 2.8 0 00-.3.4zm3.4-.6h-.1a3.3 3.3 0 00-.4.2l.1-.1h.2a.9.9 0 00.1 0v-.1zm-1.9-.1h.2zm1.3.3zm0 0zm1.5 0a1.2 1.2 0 00-.1-.1 1 1 0 00-.3 0h.1a.6.6 0 01.3 0zm-.3-.3h.1-.2l-.1.1h-.1.2zm-1.7-.2a3.7 3.7 0 01.5 0 1.8 1.8 0 01.3 0 1 1 0 01.1 0 .6.6 0 00-.1 0 .6.6 0 01-.1 0h-.2a6.4 6.4 0 00-.8 0h.3zM17 12.2zm0 0zm0 0zM11.3 12.4a.7.7 0 00-.2 0 .9.9 0 00-.2 0 1 1 0 00-.5 0 1.5 1.5 0 01.5 0h-.1a.8.8 0 00-.1 0 .8.8 0 00-.1 0 .2.2 0 00-.1.1 1 1 0 00-.4.1h.1a.2.2 0 00-.1.1 1.3 1.3 0 00-.2 0 1.4 1.4 0 00-.3 0 .6.6 0 00-.2.2.6.6 0 00-.1 0 .2.2 0 00-.1.1 1.4 1.4 0 00-.2.2 1.5 1.5 0 01.2 0 1.4 1.4 0 01.2-.1 3 3 0 00-.3.2 3.6 3.6 0 01-.4.2.8.8 0 00.2 0 1.7 1.7 0 00.2-.1l.5-.3a1.7 1.7 0 01.2 0h.7l.2-.1-.1-.1h-.1.5a2.3 2.3 0 01.6.1 1.4 1.4 0 00-.3-.2 1.4 1.4 0 01.3 0l.1.2-.2-.3a1.8 1.8 0 00-.4-.1 1.3 1.3 0 00-.1-.1l.3.1.5.2.4.2-.4-.2-.4-.3h-.2.1a1.2 1.2 0 01.3 0l.4.3a4 4 0 00.4.1 1.8 1.8 0 00-.3-.2.8.8 0 01.1 0h.1l.2.2a1.2 1.2 0 01.2.1 1 1 0 00-.2-.2 1.4 1.4 0 00-.1 0l-.1-.2a.9.9 0 00-.1 0 .4.4 0 00-.2-.1v-.1a.7.7 0 00-.1 0 1 1 0 00-.4 0 1.9 1.9 0 00-.2 0zm-.5.2zm-.3 0l.4.1h.1a1.4 1.4 0 01.2.1 1.4 1.4 0 01.3.2 2.6 2.6 0 00-.5-.1H11l-.3-.2h-.1zm-1.2.5zm1.3-.1a.3.3 0 01-.1 0 1.3 1.3 0 00-.4 0l-.3-.1h.2a2 2 0 00.3 0h.2zm.7-.3h-.1a1.8 1.8 0 00-.3 0v-.1a2.1 2.1 0 01.2 0l.2.1zm.7-.2a.6.6 0 00-.1 0h-.2.1a1.3 1.3 0 01.3 0zM17.3 14.7a1.3 1.3 0 01.1-.1 2 2 0 00.8.1 3.2 3.2 0 00.5 0 4.8 4.8 0 00.8-.2l.4-.1.4-.2h.1a9.3 9.3 0 001 .2 6.2 6.2 0 00-.6-.3l-.4-.2a3.6 3.6 0 00-.5-.1 4.7 4.7 0 00-.6 0 2.8 2.8 0 00-.6 0 2.4 2.4 0 00-.5.1 1.9 1.9 0 00-.5.3 1.5 1.5 0 00-.3.3 1.4 1.4 0 000 .2zm2.8-.6a3 3 0 00-.5.1.2.2 0 000-.1.4.4 0 00-.1-.1h.3zm-1.5 0h.2a.2.2 0 010 .1v.1a.2.2 0 01-.2 0 .2.2 0 010-.1zm-.4 0a2.2 2.2 0 01.4-.2.2.2 0 000 .1.1.1 0 000 .1.3.3 0 000 .1.3.3 0 000 .2.3.3 0 00.5-.1.3.3 0 000-.2.3.3 0 00-.1-.2 2.8 2.8 0 01.3 0h.1a.5.5 0 010 .1.7.7 0 010 .1.4.4 0 000 .1l-.3.2-.5.1a3.1 3.1 0 01-.3.1 1.3 1.3 0 000-.1.3.3 0 00-.1 0 .4.4 0 010-.1.7.7 0 010-.2.3.3 0 010-.1zm-.1 0a.6.6 0 000 .1.6.6 0 000 .2.3.3 0 000 .1.3.3 0 00.1.1 2 2 0 01-.7 0 1.7 1.7 0 01.6-.5zM9.8 16.3a2.9 2.9 0 01.3-.4l.1-.1a1.9 1.9 0 01.6 0h1.1a2 2 0 00.4-.1 2.3 2.3 0 00.4-.2 1.7 1.7 0 00.3-.2 1.5 1.5 0 01.1.2 1.6 1.6 0 000-.2 1 1 0 00-.3-.2 1.3 1.3 0 00-.5-.2 1.5 1.5 0 00-.5 0 3.8 3.8 0 00-.5.1l-.5.2a2 2 0 00-.5.2 1.2 1.2 0 00-.2.2 1.6 1.6 0 00-.1.2 1.4 1.4 0 00-.3.5v.1-.1zm3.1-1h-.3a.5.5 0 00-.1-.2 1.2 1.2 0 01.3 0 1 1 0 01.1.2zm-1.3 0v-.1a.2.2 0 01.1 0 .3.3 0 01.1 0h.1v.1a.1.1 0 01-.1 0 .2.2 0 01-.1 0zm0-.1a.3.3 0 000 .2.3.3 0 00.5-.2.3.3 0 000-.1 1.3 1.3 0 01.2 0 .8.8 0 01.1 0 .3.3 0 010 .1.2.2 0 000 .1v.1h-.2l-.3.1a3.4 3.4 0 01-.4 0h-.3v-.1a.6.6 0 010-.1l.2-.1m-.3.1a.3.3 0 000 .2v.1h-.3a2.3 2.3 0 00-.4 0 6.2 6.2 0 01.7-.3zM20.5 14.8h-.2l-.2.1-.4.1h-.5l-.4.1h-.4a2.3 2.3 0 01-.4 0 1.1 1.1 0 01-.4-.2 1.1 1.1 0 00.3.3 2.3 2.3 0 00.5 0 4.7 4.7 0 00.9 0h.4a2.4 2.4 0 00.5 0 2.9 2.9 0 00.4-.2 2.3 2.3 0 00.4-.3h-.5zM12.6 15.9h-.1l-.2.1c0 .1 0 0-.1 0l-.2.2H12l-.2.1h-.1l-.2.1h-.2l-.1.1h-.2a3.2 3.2 0 01-.7 0v.1a3 3 0 00.7 0H11.8l.2-.1.1-.1.2-.1a1.6 1.6 0 00.5-.5h-.2z"/><path d="M26.1 16.7V16v-.6a4.1 4.1 0 00-.2-.5 1.5 1.5 0 00-.2-.6.8.8 0 00-.3-.2.7.7 0 00-.3 0 .7.7 0 00-.1 0V14a.2.2 0 000-.2.7.7 0 000-.2v-.3a4.9 4.9 0 000-.7v-.2V12.2l-.1-.1V12a3.6 3.6 0 01-.2-.7V11l-.2-.3-.1-.7a7 7 0 00-.5-1.4l-.2-.3-.1-.1-.2-.2-.2-.2-.1-.1-.1-.2a3.5 3.5 0 01-.4-.5 3.1 3.1 0 01-.3-.6V6l-.1-.2a4.7 4.7 0 00-.3-.6 5.3 5.3 0 00-.8-1.3l-.3-.2-.3-.3A7 7 0 0020 3a8.4 8.4 0 00-1.3-.8 7.5 7.5 0 00-2.8-.8 9.1 9.1 0 00-1.4 0l-.4.1h-.3l-.4.1h-.3l-1.4.3h-.3L11 2l-.3.1a1.7 1.7 0 01-.3 0h-1l.9.4.3.1.3.2.4.2h.2l-.8.2a8.5 8.5 0 00-1 .3 5.5 5.5 0 00-.8.4 9.6 9.6 0 00-.8.5 11.1 11.1 0 00-1.5 1.3 6 6 0 00-.7.8l-.1.2-.1.2a5 5 0 00-.3.5 4.9 4.9 0 00-.1.4 3.8 3.8 0 00-.2.6v.5a1.7 1.7 0 000 .3 2 2 0 00.2.3 2.4 2.4 0 00.6 1 1.5 1.5 0 01.3.2.7.7 0 010 .2 1.8 1.8 0 010 .2v.7a11 11 0 00.3 1.5v.6l.1.1v.3a1.6 1.6 0 01.1.2.9.9 0 00-.1.4 1.6 1.6 0 000 .4 2.7 2.7 0 00.1.4 4.4 4.4 0 00.3.6 4.7 4.7 0 00.3.5.6.6 0 010 .1.3.3 0 010 .1h-.1l-.1.2v.1H7v.2a1.3 1.3 0 00-.3.3 1.3 1.3 0 000 .3 1.6 1.6 0 000 .2V19a11.9 11.9 0 00.2 1.3c0 .5.1.9.3 1.3a10.4 10.4 0 00.4 1.3l.1.3a1.3 1.3 0 00.2.3.6.6 0 00.1.1.7.7 0 00.2 0l.2.1a.3.3 0 01.1 0 1.6 1.6 0 01.4.5l.3.6.4.5.3.5.4.8a3.5 3.5 0 00.5.8l.1.2.2.1.2.2.1.1.7.6a16.8 16.8 0 001.5 1l.4.1.4.2a4.4 4.4 0 00.4.2 2.8 2.8 0 00.5.2 3.8 3.8 0 00.9 0 8.4 8.4 0 00.9 0 9.6 9.6 0 001.7-.5 7.3 7.3 0 00.8-.4 5.5 5.5 0 00.8-.5l.2-.1.2-.1.1-.2.2-.2.5-.7 1-1.4.6-.7.5-.7.3-.4v-.2h.1V24l.2-.3v.2l-.2.8a6.4 6.4 0 00-.2.9 5.5 5.5 0 000 .9v.2a7.7 7.7 0 00.3 1.4v-.8-.4-.5-.8a5.5 5.5 0 010-.8l.2-.8.2-.9.1-.5v-.2l.1-.2v-.4a.3.3 0 01.3-.1l.1-.1a.8.8 0 00.1 0 1.1 1.1 0 00.3-.3 1.8 1.8 0 00.3-.6 4.3 4.3 0 00.1-.6 9 9 0 00.1-1.1v-1.2-1.1zm-1.3-2.8zm0 .1v.1a2.2 2.2 0 00-.2.3v.1l-.1-.2-.1-.1a1 1 0 000-.2 2.7 2.7 0 00-.2-.2 2.5 2.5 0 00-.8-.6.9.9 0 000-.3 1.7 1.7 0 000-.2 2.8 2.8 0 000-.3l-.1-.2a.9.9 0 00-.1-.1 2.3 2.3 0 01.3.3l.1.2.2.2.3.3.3.4.2.2a.7.7 0 01.2.1.7.7 0 010 .1v.1zm-1.4-.7l.3.2.1.2a2.5 2.5 0 01.2.2 2 2 0 01.1.3 1.1 1.1 0 00.2.2.8.8 0 000 .1l.2.1c0 .1 0 0 0 0a.9.9 0 00.2.6v1L25 18v.7l-.2-.8-.2-1.6-.2-.8-.2-.8a1.7 1.7 0 00-.1-.4 2.9 2.9 0 00-.3-.3l-.4-.6a1.4 1.4 0 00.1-.1zm-17-3.7a2 2 0 01-.2-.2A1.7 1.7 0 016 9a1.3 1.3 0 010-.2 1 1 0 01-.1-.2v-.4a3 3 0 010-.4 4.3 4.3 0 01.2-.4 4.7 4.7 0 01.2-.6v-.1l.1-.1a5.4 5.4 0 01.6-.8 10.8 10.8 0 011.3-1.3l.8-.6a5.7 5.7 0 01.8-.4 8.3 8.3 0 01.9-.4l.9-.2v-.1a3 3 0 01-.3-.2l-.3-.2H11h.1l.4-.1h.3l1.4-.1.7-.1h.6a12 12 0 011.4 0 8.2 8.2 0 011.3.2 8 8 0 011.2.4 6.7 6.7 0 012.2 1.5 4.8 4.8 0 01.8 1 4 4 0 01.2.6v.2l.1.1.2.4a3.5 3.5 0 00.3.6 3.9 3.9 0 00.4.6l.1.2h.2c0 .2.2.3.2.3l.2.1v.1l.2.3a6.6 6.6 0 01.6 1.2c0 .3 0 .5.2.7v.3l.1.4a4 4 0 00.3.7V12.4l.1.1v.2a4.8 4.8 0 01.1.7v.2a1.3 1.3 0 00-.1-.1l-.2-.2-.4-.3-.3-.3-.2-.2-.2-.2-.2-.2a1.4 1.4 0 00-.2-.1.5.5 0 00-.1-.1.9.9 0 00-.1 0v-.1l-.2-.3a10.6 10.6 0 01-.4-1.4 4 4 0 00-.6-1s0-.2-.2-.3 0-.2-.2-.3v-.1l-.1-.1a11.1 11.1 0 00-1-1.2 12.3 12.3 0 00-.4-.5 1.8 1.8 0 00-.4-.3 1.3 1.3 0 00-.2 0v-.1H19a5.9 5.9 0 00-1.4-.2H16a13.8 13.8 0 00-1.4.1l-.7.1a8 8 0 00-.7.2 3.8 3.8 0 00-.7.3 6.4 6.4 0 00-.6.3 16.3 16.3 0 00-2.3 1.8 14.1 14.1 0 00-.8.7v.2l-.2.1a2.4 2.4 0 00-.3.7 3.4 3.4 0 00-.2.7 6.4 6.4 0 000 1.4l.1 1.2H8l-.2.1h-.1l-.4.1a1.5 1.5 0 00-.3.1.7.7 0 00-.1 0v-1.4l.1-1v-.6a2.8 2.8 0 000-.3 1.5 1.5 0 000-.4 1.1 1.1 0 00-.1-.3 1.5 1.5 0 00-.2-.3s-.2 0-.2-.2zm9.9 3.7l-.1-.5a.1.1 0 00.1 0 3.1 3.1 0 010-.4l.1-.2V12a1.2 1.2 0 010-.2l.1-.1.1-.2.1-.2a.5.5 0 00-.2.1.7.7 0 00-.1.2.7.7 0 000 .2 1.8 1.8 0 000 .2 3.7 3.7 0 000 .4 2.5 2.5 0 000 .4.5.5 0 01-.1-.1v-.2-.4-.1a1.3 1.3 0 010-.2 1.4 1.4 0 010-.2.4.4 0 00-.1 0 .5.5 0 00-.1.2.4.4 0 000 .1.4.4 0 000 .1.4.4 0 000 .1 1.3 1.3 0 00-.1.2v.2a1.4 1.4 0 000 .2 2 2 0 00.1.4 2.1 2.1 0 00.1.2 3.6 3.6 0 01-.4.4h-.1l-.2.1a2.1 2.1 0 01-.3.1 2 2 0 01-.3 0 1.7 1.7 0 01-.3 0 1.3 1.3 0 01-.3 0H14l-.1-.1h-.2v-.2a1.2 1.2 0 00-.2-.4 2.7 2.7 0 00-.2-.3l-.1-.1v-.1a1.3 1.3 0 00-.2-.3.6.6 0 00-.3-.1.5.5 0 00-.2 0v-.1a.2.2 0 00-.1 0 .2.2 0 00-.1 0 .6.6 0 00-.2 0 1 1 0 00-.2 0h-.1a.3.3 0 00-.2 0 .2.2 0 00-.1 0 .1.1 0 000 .1.4.4 0 01.2 0h.2a1.3 1.3 0 01.1.2h.2l.1.1a2.4 2.4 0 01.3.2 2.1 2.1 0 00-.3-.2 2 2 0 00-.2-.2h.2a1.7 1.7 0 01.2.2.6.6 0 01.2.2v-.2l.1.2.2.2-.1-.3a1.6 1.6 0 00-.3-.2v-.1l.2.2a.7.7 0 00.2.2.2.2 0 00.1 0l.2.2a2.5 2.5 0 01.2.3 3.4 3.4 0 010 .3h.1a4.6 4.6 0 00-1.1-.2 7.8 7.8 0 00-1.5 0l-.7.1-.6.1-1.4.2-.1-1.2a6.3 6.3 0 010-1.4 3.3 3.3 0 01.2-.7A2.2 2.2 0 019 10l.1-.2.1-.1A11.5 11.5 0 0110 9a16.1 16.1 0 012.3-1.7 6 6 0 01.6-.3 3.4 3.4 0 01.6-.2l.7-.1.7-.1a13 13 0 011.4 0h2a4.1 4.1 0 01.7.1h.1a.8.8 0 01.2.1 1.5 1.5 0 01.2.2l.2.2.3.3a11.1 11.1 0 01.9 1v.2l.2.1.2.3.4.5.2.3.2.3.2.7c0 .2.2.4.4.6l.1.3a1.9 1.9 0 00-.3 0h-.7l-1.4.2H20l-.4.1-.6.1a11.6 11.6 0 00-1.4.4l-.7.3h-.1a1.5 1.5 0 00-.2.1 2.2 2.2 0 00-.3.3zm-3.6-.7zm-.3-.3a.3.3 0 01.1 0zm.2 0zm.6.5a.7.7 0 01-.2-.2 1.2 1.2 0 00-.2-.2 1 1 0 01.2.1 1.4 1.4 0 01.2.2zM7 15.5a1.8 1.8 0 010-.7.6.6 0 010-.2.2.2 0 010-.1.4.4 0 01.1 0 .6.6 0 010-.1 1.3 1.3 0 01.4 0l.3-.1H8l.2-.1h.3l1.4-.3h.7l.7-.1a7.4 7.4 0 011.3 0 4.9 4.9 0 01.7 0l.2.1h.1l.2.1c0 .1 0 0 .1 0l.2.1a1.9 1.9 0 00.2.1 1.7 1.7 0 00.3.1 2 2 0 00.4 0 2.3 2.3 0 00.4 0 2.5 2.5 0 00.3-.2h.2V14c0-.1.1 0 .2 0a5 5 0 00.5-.5 2 2 0 01.3-.2 1.3 1.3 0 010-.1.8.8 0 01.2 0l.7-.3a11.4 11.4 0 011.3-.4l.7-.1h.3l.4-.1 1.3-.3h.7a1.5 1.5 0 01.3 0 .4.4 0 01.3.2l.1.2a2.8 2.8 0 010 .4 1.6 1.6 0 01.1.1.7.7 0 010 .2 1.5 1.5 0 010 .3 2 2 0 00-.2.2 2.4 2.4 0 00-.1.4 5.3 5.3 0 000 .8l-.1.6a3 3 0 01-.1.7 1.5 1.5 0 01-.4.6 1.3 1.3 0 01-.2.2h-.2l-.1.2a4 4 0 01-.6.2l-.3.1h-.2v.1H20.3l-.2.1H19.8l-.7.1H19h-.5a1.5 1.5 0 01-.7-.1l-.1-.1-.1-.1a1.8 1.8 0 01-.2-.3 4.5 4.5 0 01-.4-.6l-.1-.3-.2-.3a5.6 5.6 0 00-.4-.6 2 2 0 00-.6-.4.8.8 0 00-.3-.1.7.7 0 00-.4 0 1 1 0 00-.3.2 1.6 1.6 0 00-.2.3 2.8 2.8 0 00-.2.7 11.5 11.5 0 01-.4 1.3 2.6 2.6 0 01-.3.6 1.4 1.4 0 01-.3.3 2.6 2.6 0 01-.3.2 5.3 5.3 0 01-1.3.5 13.3 13.3 0 01-1.7.2 2.4 2.4 0 01-.3 0 1.5 1.5 0 01-1.1-.6l-.4-.6-.3-.6-.1-.3-.1-.2-.1-.1a4.5 4.5 0 01-.7-1.2zm10.6 4.3a.4.4 0 00-.1-.3.5.5 0 00-.3-.1.6.6 0 00-.2 0 1 1 0 00-.3.2l-.2.2-.2.1-.2.2a.6.6 0 01-.1 0 .5.5 0 01-.2.1 1.2 1.2 0 01-.4-.1l-.5-.2a2.3 2.3 0 00-.3-.1h-.1a.7.7 0 00-.1 0 .4.4 0 00-.2 0 .2.2 0 00-.1.1.2.2 0 000 .2.1.1 0 00.1 0 .9.9 0 00.1.1 1.3 1.3 0 01.2 0 1.6 1.6 0 01.2.2.1.1 0 010 .1.5.5 0 01-.2 0h-.1a2.6 2.6 0 01-.3-.1 1.1 1.1 0 01-.3-.1.7.7 0 01-.2-.3 1.2 1.2 0 010-.5 1.6 1.6 0 010-.3V18.8l.1-.3v-.3l.2-.6.1-.3a11.7 11.7 0 00.5-1.4v-.3a2 2 0 01.2-.3 1.5 1.5 0 01.2-.3.8.8 0 01.3-.2.7.7 0 01.6 0 1.9 1.9 0 01.5.5 5.2 5.2 0 01.4.6l.1.3.2.3a4.6 4.6 0 00.3.6h.1l.2.4q0 .3.2.5l.1.2.1.1v.1l.2.2a.9.9 0 010 .2h.1a1 1 0 010 .5.6.6 0 01-.2.4.5.5 0 01-.3.1.3.3 0 01-.1 0 .4.4 0 000-.1zm-.3.1a.5.5 0 01-.1 0 .7.7 0 01-.2.1.6.6 0 01-.2 0l.1-.1a.7.7 0 01.2-.2.2.2 0 01.2 0v.1a.3.3 0 000 .1zm-2.5.4h-.1l-.2-.1a1.4 1.4 0 00-.2 0 .7.7 0 01-.1 0 .2.2 0 010-.1.1.1 0 010-.1.3.3 0 01.2 0 1.1 1.1 0 01.2 0 2.3 2.3 0 01.2.1l.3.2a.8.8 0 01-.2 0zm-6.2 3.2h-.2a.4.4 0 01-.1-.1.3.3 0 010-.1A1 1 0 018 23l-.1-.3a10.4 10.4 0 01-.4-1.2l-.2-1.3-.1-1.2v-.3l-.1-.4v-.1-.2a1 1 0 010-.1.9.9 0 010-.1 1.2 1.2 0 010-.2v-.1l.1-.1v-.2l.1-.2a.4.4 0 00.1-.1v.7l.1 1v.6l.1.3v.3l.2 1c0 .3 0 .8.2 1.1a7.3 7.3 0 00.3 1l.2.6zm15.5.4v.1l-.1.1-.1.2-.3.3-.5.7-.5.7-1.1 1.4-.5.7-.2.2-.2.1-.1.1-.2.2a5 5 0 01-.7.4 7 7 0 01-.8.3 9 9 0 01-1.7.4 8.3 8.3 0 01-.8.1 3.4 3.4 0 01-.9 0 2.5 2.5 0 01-.3-.1 4.2 4.2 0 01-.4-.2l-.4-.2-.4-.2-1.5-.8-.7-.6h-.2l-.2-.2-.1-.2-.2-.1a3.5 3.5 0 01-.5-.7l-.2-.4-.2-.4-.3-.6-.3-.5-.3-.9a71 71 0 01-1-3l-.1-1-.1-.4v-.2l-.1-.6-.2-1v-.4-.1.3l.5.6a6.9 6.9 0 00.3.6 1.6 1.6 0 001.3.7 2.5 2.5 0 00.3 0h.4a8.9 8.9 0 001.3-.4 5.4 5.4 0 001.3-.5 2.6 2.6 0 00.3-.2 1.5 1.5 0 00.3-.2v-.1.3l-.2.3-.1.3v.2h-.1a.7.7 0 000 .1 1.4 1.4 0 000 .4 2.3 2.3 0 000 .3 1 1 0 00.1.3.9.9 0 00.3.3 1.3 1.3 0 00.3.2 2.7 2.7 0 00.3 0h.2a.6.6 0 00.2 0 .2.2 0 00.1 0 .2.2 0 000-.1.7.7 0 00.2 0 .3.3 0 00.2-.1 1.4 1.4 0 00.6.2.9.9 0 00.3 0 .6.6 0 000-.1.7.7 0 00.1 0 1 1 0 00.2-.1l.2-.2.1-.2a.6.6 0 00.4.1 1.2 1.2 0 00.1 0 .3.3 0 00.1 0 .4.4 0 00.1 0 .4.4 0 00.2 0 .5.5 0 000 .1h.1a.7.7 0 00.4 0 .8.8 0 00.2-.2.8.8 0 00.2-.3 1 1 0 000-.3 1.2 1.2 0 000-.5v-.1a1 1 0 00-.2-.1l-.1-.3-.1-.2-.2-.2a6 6 0 01-.4-.6l.1.1.1.1h.2a1.3 1.3 0 00.3.2 2.2 2.2 0 00.4 0h2.1v-.1H21l.3-.2a4 4 0 00.7-.3h.2l.1-.2a2.9 2.9 0 00.3-.2 1.7 1.7 0 00.4-.6 3.1 3.1 0 00.1-.7v-.7a3 3 0 01.3-1.3 5.4 5.4 0 00.3.6 2.1 2.1 0 01.3.7v.2a6.5 6.5 0 00.2.6l.2.7c0 .6.2 1 .3 1.6 0 .5.2.9.3 1.3v.5a11.8 11.8 0 01-.1 1.7v.3l-.1.2v.2l-.1.2v.2l-.1.2-.2.4a7.3 7.3 0 01-.3.8zm1.8-7.2a23.7 23.7 0 01-.3 3.9 1.7 1.7 0 01-.2.5.8.8 0 01-.1.2.6.6 0 01-.1 0l-.1.1a12 12 0 000-1.7v-.4-.5-.9l-.1-1.7-.2-1.4a1.1 1.1 0 010-.1 2.2 2.2 0 01.2-.4.6.6 0 01.5 0 .6.6 0 01.1.2 1.3 1.3 0 01.2.5 3.8 3.8 0 010 .6l.1.5v.6z"/><path d="M19.5 23.1a4.4 4.4 0 00-.7-.5 5 5 0 00-.4-.3 4 4 0 00-.5-.1 2.2 2.2 0 00-.2-.1 1.7 1.7 0 00-.2 0 1.3 1.3 0 00-.3 0 1 1 0 00-.2 0 2.4 2.4 0 00-.4.2 1 1 0 01-.2.1.7.7 0 01-.2 0 2.2 2.2 0 01-.4 0h-.3a1.4 1.4 0 00-.2 0 1.8 1.8 0 00-.5 0 3.6 3.6 0 00-.4.3 4.5 4.5 0 00-.4.2 2 2 0 00-.3.3 3 3 0 00-.3.4l-.3.3a1.3 1.3 0 01.4 0 .9.9 0 01.2.2h.1l.2.1a4 4 0 00.7.2 3.8 3.8 0 00.8.1 5.8 5.8 0 00.9 0 6.8 6.8 0 00.8-.3 8.4 8.4 0 00.8-.3l.4-.1.4-.2.3-.2a1.1 1.1 0 00.4-.3zm-6 .5a2.9 2.9 0 01.2-.3 2.6 2.6 0 01.8-.5 2.2 2.2 0 01.8-.3 1.7 1.7 0 01.4 0 2.3 2.3 0 00.5.2 1 1 0 00.2 0 1.1 1.1 0 00.3-.2 2.2 2.2 0 01.4-.2 1.4 1.4 0 01.8 0l.4.2.4.2.7.4a7.6 7.6 0 00-.5 0 1 1 0 00-.2 0 2.6 2.6 0 01-.4-.1H18h-.3a3.1 3.1 0 00-.8 0 2.2 2.2 0 00-.4 0l-.4.2a2 2 0 01-.4.2.7.7 0 01-.3 0 .5.5 0 01-.1 0l-.1-.1a.6.6 0 00-.1 0 .5.5 0 00-.1 0 .8.8 0 00-.3 0h-.2l-.3.1a1 1 0 00-.1 0 .3.3 0 00-.1.1 1.3 1.3 0 01-.2.1 3 3 0 01-.4.2h-.1a1.1 1.1 0 00-.2 0l.2-.2zm5.6-.3l-.4.2-.4.2-.3.1a8 8 0 01-.8.3 6.3 6.3 0 01-.9.1 5.2 5.2 0 01-.8 0 6.7 6.7 0 01-.8 0h-.4l-.2-.1-.2-.1h-.2a.9.9 0 00-.2-.1 3 3 0 00.4-.2 1.6 1.6 0 00.2 0v-.1a.6.6 0 01.2 0l.4-.2h.2a.7.7 0 01.2 0 .5.5 0 01.1 0h.1a.8.8 0 00.1.1.9.9 0 00.5 0 2.3 2.3 0 00.4 0l.3-.2a2 2 0 01.4 0 4.7 4.7 0 01.8-.1h.4a2.2 2.2 0 00.4 0h.8a1.2 1.2 0 01-.3.1zM8 15.8v.2a.6.6 0 000 .1l.1.3.3 1a3.8 3.8 0 00.2.6l.2.2a2.8 2.8 0 00.1.3 1 1 0 00.5.3 1.3 1.3 0 00.3 0 2.3 2.3 0 00.3 0H11a4.7 4.7 0 001.1-.1 2.9 2.9 0 00.5-.3 2.1 2.1 0 00.5-.3 1 1 0 00.2-.3 1.8 1.8 0 00.1-.2v-.3l.1-.1.1-.1a5 5 0 00.4-1.1 2.5 2.5 0 000-.6 1.8 1.8 0 000-.6 1.1 1.1 0 00-.1-.1v-.1l-.1-.2h-.1l-.1-.2a.8.8 0 00-.1-.1.5.5 0 00-.2-.1 1.4 1.4 0 00-.1 0 9.4 9.4 0 00-1.2-.2h-.3-.8a5.9 5.9 0 00-1.1.3h-.3l-.2.2a4.2 4.2 0 00-.6.2 2 2 0 00-.4.3 2.5 2.5 0 00-.2.2 1.5 1.5 0 00-.1.3 1.2 1.2 0 000 .3.5.5 0 000 .1 1 1 0 010 .1zm0-.2a1 1 0 01.1-.3 1.4 1.4 0 01.1-.2 2.2 2.2 0 01.2-.2.7.7 0 01.1-.1l.1-.1a2 2 0 01.3-.2 3.7 3.7 0 01.5-.2h.3l.2-.1A5.8 5.8 0 0111 14h1.1a10.9 10.9 0 011.1.2h.1a.2.2 0 01.1 0 1.1 1.1 0 01.2.3l.1.2v.1a.9.9 0 01.1.1 1.6 1.6 0 01.1.5 2.3 2.3 0 010 .6 4.9 4.9 0 01-.4 1V17.3l-.2.2a1.6 1.6 0 010 .3.9.9 0 01-.2.2 2.3 2.3 0 01-1 .5 4.5 4.5 0 01-1 .2H10a2.2 2.2 0 01-.3 0 1.3 1.3 0 01-.3 0 .9.9 0 01-.2-.1 1 1 0 01-.2-.2 3.3 3.3 0 01-.3-.4 3.6 3.6 0 01-.2-.5 9.7 9.7 0 01-.4-1.1V16a1 1 0 010-.3 1 1 0 000-.1.5.5 0 010-.1zM16.3 14.8V15.1l.1.1.3.6c0 .2.2.3.3.4l.3.5a2.8 2.8 0 00.4.4 2 2 0 00.5.3 2.3 2.3 0 00.5.2 3.7 3.7 0 001.1 0 9.5 9.5 0 001.2-.3 4 4 0 00.5-.2 2 2 0 00.5-.3 1.3 1.3 0 00.2-.2v-.1h.1v-.1a1.9 1.9 0 00.2-.6 4.8 4.8 0 000-1.2l-.1-1v-.2a.9.9 0 00-.3-.4 1.2 1.2 0 00-.3-.2 1.7 1.7 0 00-.2-.1 3.1 3.1 0 00-.6-.2H20.7a2.7 2.7 0 00-.3 0h-.6l-.5.1-.6.1-.6.1a4.6 4.6 0 00-1 .5 2.2 2.2 0 00-.5.3 1.3 1.3 0 00-.3.5 1.3 1.3 0 000 .6v.1zm.1-.6a1.2 1.2 0 01.3-.5 2.1 2.1 0 01.5-.3 3.5 3.5 0 01.5-.2l.5-.1a12 12 0 011.7-.3h.5a2.4 2.4 0 01.3 0H21a3 3 0 01.5 0 1.3 1.3 0 01.4.3.7.7 0 01.3.4l.1 1.2a4.6 4.6 0 010 1 1.7 1.7 0 010 .6h-.1v.1c0 .1 0 0 0 0l-.1.1a1.2 1.2 0 01-.2.2 1.8 1.8 0 01-.5.3 4 4 0 01-.5.2l-.5.1-.6.2a3.6 3.6 0 01-1 0 2.2 2.2 0 01-.6-.1 1.9 1.9 0 01-.5-.3 2.6 2.6 0 01-.4-.4l-.3-.5-.3-.5a4.6 4.6 0 01-.2-.5V15l-.1-.1v-.2-.1a1.1 1.1 0 010-.5zM10.9 29.5l-.2-.7v-.6a6.5 6.5 0 00-.4-1.4l-.3-.6-.2-.6.4 1.3a9.4 9.4 0 01.3 1.3v.7a3.3 3.3 0 00.1.7 2 2 0 00.4.6 1.7 1.7 0 00.5.4 2.6 2.6 0 01-.4-.5 2.6 2.6 0 01-.2-.6z"/></svg>